<svg xmlns="http://www.w3.org/2000/svg" xmlns:xlink="http://www.w3.org/1999/xlink" width="500" zoomAndPan="magnify" viewBox="0 0 375 374.999991" height="500" preserveAspectRatio="xMidYMid meet" version="1.0"><defs><clipPath id="1650e41d99"><path d="M 2.667969 0 L 372.417969 0 L 372.417969 369.75 L 2.667969 369.75 Z M 2.667969 0 " clip-rule="nonzero"/></clipPath></defs><g clip-path="url(#1650e41d99)"><path fill="#ff914d" d="M 372.324219 184.828125 C 372.324219 187.851562 372.25 190.875 372.101562 193.898438 C 371.953125 196.917969 371.730469 199.933594 371.433594 202.945312 C 371.140625 205.953125 370.769531 208.957031 370.324219 211.949219 C 369.882812 214.941406 369.363281 217.917969 368.773438 220.886719 C 368.183594 223.851562 367.519531 226.804688 366.785156 229.738281 C 366.050781 232.671875 365.246094 235.585938 364.367188 238.480469 C 363.488281 241.375 362.539062 244.246094 361.519531 247.09375 C 360.503906 249.941406 359.414062 252.765625 358.257812 255.558594 C 357.097656 258.351562 355.875 261.117188 354.578125 263.851562 C 353.285156 266.585938 351.925781 269.289062 350.5 271.957031 C 349.074219 274.625 347.585938 277.253906 346.03125 279.847656 C 344.472656 282.441406 342.855469 284.996094 341.175781 287.511719 C 339.496094 290.027344 337.753906 292.5 335.953125 294.929688 C 334.152344 297.359375 332.289062 299.742188 330.371094 302.082031 C 328.453125 304.421875 326.476562 306.710938 324.445312 308.949219 C 322.414062 311.191406 320.328125 313.382812 318.191406 315.519531 C 316.050781 317.660156 313.863281 319.746094 311.621094 321.777344 C 309.378906 323.808594 307.089844 325.78125 304.75 327.703125 C 302.414062 329.621094 300.027344 331.480469 297.597656 333.285156 C 295.167969 335.085938 292.699219 336.828125 290.183594 338.507812 C 287.667969 340.1875 285.113281 341.804688 282.519531 343.359375 C 279.921875 344.914062 277.292969 346.40625 274.625 347.832031 C 271.957031 349.257812 269.257812 350.617188 266.519531 351.910156 C 263.785156 353.203125 261.023438 354.429688 258.226562 355.585938 C 255.433594 356.746094 252.613281 357.832031 249.765625 358.851562 C 246.914062 359.871094 244.042969 360.820312 241.148438 361.699219 C 238.253906 362.574219 235.339844 363.382812 232.40625 364.117188 C 229.472656 364.851562 226.523438 365.515625 223.554688 366.105469 C 220.589844 366.695312 217.609375 367.210938 214.617188 367.65625 C 211.625 368.097656 208.625 368.46875 205.613281 368.765625 C 202.601562 369.0625 199.585938 369.285156 196.566406 369.433594 C 193.546875 369.582031 190.523438 369.65625 187.496094 369.65625 C 184.472656 369.65625 181.449219 369.582031 178.429688 369.433594 C 175.40625 369.285156 172.390625 369.0625 169.382812 368.765625 C 166.371094 368.46875 163.371094 368.097656 160.378906 367.65625 C 157.386719 367.210938 154.40625 366.695312 151.4375 366.105469 C 148.472656 365.515625 145.523438 364.851562 142.585938 364.117188 C 139.652344 363.382812 136.738281 362.574219 133.84375 361.699219 C 130.949219 360.820312 128.078125 359.871094 125.230469 358.851562 C 122.382812 357.832031 119.5625 356.746094 116.765625 355.585938 C 113.972656 354.429688 111.207031 353.203125 108.472656 351.910156 C 105.738281 350.617188 103.039062 349.257812 100.371094 347.832031 C 97.703125 346.40625 95.070312 344.914062 92.476562 343.359375 C 89.882812 341.804688 87.328125 340.1875 84.8125 338.507812 C 82.296875 336.828125 79.824219 335.085938 77.394531 333.285156 C 74.964844 331.480469 72.582031 329.621094 70.242188 327.703125 C 67.90625 325.78125 65.617188 323.808594 63.375 321.777344 C 61.132812 319.746094 58.941406 317.660156 56.804688 315.519531 C 54.664062 313.382812 52.578125 311.191406 50.546875 308.949219 C 48.515625 306.710938 46.542969 304.421875 44.625 302.082031 C 42.703125 299.742188 40.84375 297.359375 39.042969 294.929688 C 37.238281 292.5 35.5 290.027344 33.816406 287.511719 C 32.136719 284.996094 30.519531 282.441406 28.964844 279.847656 C 27.410156 277.253906 25.917969 274.625 24.492188 271.957031 C 23.066406 269.289062 21.707031 266.585938 20.414062 263.851562 C 19.121094 261.117188 17.894531 258.351562 16.738281 255.558594 C 15.582031 252.765625 14.492188 249.941406 13.472656 247.09375 C 12.453125 244.246094 11.507812 241.375 10.628906 238.480469 C 9.75 235.585938 8.941406 232.671875 8.207031 229.738281 C 7.472656 226.804688 6.8125 223.851562 6.21875 220.886719 C 5.628906 217.917969 5.113281 214.941406 4.667969 211.949219 C 4.226562 208.957031 3.855469 205.953125 3.558594 202.945312 C 3.261719 199.933594 3.039062 196.917969 2.890625 193.898438 C 2.742188 190.875 2.667969 187.851562 2.667969 184.828125 C 2.667969 181.804688 2.742188 178.78125 2.890625 175.757812 C 3.039062 172.738281 3.261719 169.722656 3.558594 166.710938 C 3.855469 163.703125 4.226562 160.699219 4.667969 157.707031 C 5.113281 154.714844 5.628906 151.738281 6.21875 148.769531 C 6.8125 145.804688 7.472656 142.851562 8.207031 139.917969 C 8.941406 136.984375 9.75 134.070312 10.628906 131.175781 C 11.507812 128.28125 12.453125 125.410156 13.472656 122.5625 C 14.492188 119.714844 15.582031 116.890625 16.738281 114.097656 C 17.894531 111.304688 19.121094 108.539062 20.414062 105.804688 C 21.707031 103.070312 23.066406 100.367188 24.492188 97.699219 C 25.917969 95.03125 27.410156 92.402344 28.964844 89.808594 C 30.519531 87.214844 32.136719 84.65625 33.816406 82.144531 C 35.5 79.628906 37.238281 77.15625 39.042969 74.726562 C 40.84375 72.296875 42.703125 69.914062 44.625 67.574219 C 46.542969 65.234375 48.515625 62.945312 50.546875 60.707031 C 52.578125 58.464844 54.664062 56.273438 56.804688 54.136719 C 58.941406 51.996094 61.132812 49.910156 63.375 47.878906 C 65.617188 45.847656 67.90625 43.871094 70.242188 41.953125 C 72.582031 40.035156 74.964844 38.175781 77.394531 36.371094 C 79.824219 34.570312 82.296875 32.828125 84.8125 31.148438 C 87.328125 29.46875 89.882812 27.851562 92.476562 26.296875 C 95.070312 24.742188 97.703125 23.25 100.371094 21.824219 C 103.039062 20.398438 105.738281 19.039062 108.472656 17.746094 C 111.207031 16.453125 113.972656 15.226562 116.765625 14.070312 C 119.5625 12.910156 122.382812 11.824219 125.230469 10.804688 C 128.078125 9.785156 130.949219 8.835938 133.84375 7.957031 C 136.738281 7.082031 139.652344 6.273438 142.585938 5.539062 C 145.523438 4.804688 148.472656 4.140625 151.4375 3.550781 C 154.40625 2.960938 157.386719 2.445312 160.378906 2 C 163.371094 1.558594 166.371094 1.1875 169.382812 0.890625 C 172.390625 0.59375 175.40625 0.371094 178.429688 0.222656 C 181.449219 0.0742188 184.472656 0 187.496094 0 C 190.523438 0 193.546875 0.0742188 196.566406 0.222656 C 199.585938 0.371094 202.601562 0.59375 205.613281 0.890625 C 208.625 1.1875 211.625 1.558594 214.617188 2 C 217.609375 2.445312 220.589844 2.960938 223.554688 3.550781 C 226.523438 4.140625 229.472656 4.804688 232.40625 5.539062 C 235.339844 6.273438 238.253906 7.082031 241.148438 7.957031 C 244.042969 8.835938 246.914062 9.785156 249.765625 10.804688 C 252.613281 11.824219 255.433594 12.910156 258.226562 14.070312 C 261.023438 15.226562 263.785156 16.453125 266.519531 17.746094 C 269.257812 19.039062 271.957031 20.398438 274.625 21.824219 C 277.292969 23.25 279.921875 24.742188 282.519531 26.296875 C 285.113281 27.851562 287.667969 29.46875 290.183594 31.148438 C 292.699219 32.828125 295.167969 34.570312 297.597656 36.371094 C 300.027344 38.175781 302.414062 40.035156 304.75 41.953125 C 307.089844 43.871094 309.378906 45.847656 311.621094 47.878906 C 313.863281 49.910156 316.050781 51.996094 318.191406 54.136719 C 320.328125 56.273438 322.414062 58.464844 324.445312 60.707031 C 326.476562 62.945312 328.453125 65.234375 330.371094 67.574219 C 332.289062 69.914062 334.152344 72.296875 335.953125 74.726562 C 337.753906 77.15625 339.496094 79.628906 341.175781 82.144531 C 342.855469 84.65625 344.472656 87.214844 346.03125 89.808594 C 347.585938 92.402344 349.074219 95.03125 350.5 97.699219 C 351.925781 100.367188 353.285156 103.070312 354.578125 105.804688 C 355.875 108.539062 357.097656 111.304688 358.257812 114.097656 C 359.414062 116.890625 360.503906 119.714844 361.519531 122.5625 C 362.539062 125.410156 363.488281 128.28125 364.367188 131.175781 C 365.246094 134.070312 366.050781 136.984375 366.785156 139.917969 C 367.519531 142.851562 368.183594 145.804688 368.773438 148.769531 C 369.363281 151.738281 369.882812 154.714844 370.324219 157.707031 C 370.769531 160.699219 371.140625 163.703125 371.433594 166.710938 C 371.730469 169.722656 371.953125 172.738281 372.101562 175.757812 C 372.25 178.78125 372.324219 181.804688 372.324219 184.828125 Z M 372.324219 184.828125 " fill-opacity="1" fill-rule="nonzero"/></g><path fill="#1ea980" d="M 285.042969 117.488281 C 260.09375 94.792969 221.207031 96.960938 197.425781 120.828125 L 187.496094 130.757812 L 177.566406 120.828125 C 153.703125 96.960938 114.816406 94.792969 89.953125 117.488281 C 63.332031 141.769531 62.582031 182.992188 87.78125 208.191406 L 160.960938 281.371094 C 175.648438 296.058594 199.429688 296.058594 214.117188 281.371094 L 287.296875 208.191406 C 312.414062 183.074219 311.660156 141.769531 285.042969 117.488281 Z M 285.042969 117.488281 " fill-opacity="1" fill-rule="nonzero"/></svg>